HIERARCHY
ROOT Hips
{
	OFFSET -3.958830 18.904000 13.208200
	CHANNELS 6 Xposition Yposition Zposition Zrotation Yrotation Xrotation 
	JOINT LHipJoint
	{
		OFFSET 0.000000 0.000000 0.000000
		CHANNELS 3 Zrotation Yrotation Xrotation
		JOINT LeftUpLeg
		{
			OFFSET 1.800000 -1.400000 0.085000
			CHANNELS 3 Zrotation Yrotation Xrotation
			JOINT LeftLeg
			{
				OFFSET 2.215000 -6.000000 0.000000
				CHANNELS 3 Zrotation Yrotation Xrotation
				JOINT LeftFoot
				{
					OFFSET 2.500000 -6.900000 0.000000
					CHANNELS 3 Zrotation Yrotation Xrotation
					JOINT LeftToeBase
					{
						OFFSET 0.200000 -0.500000 1.950000
						CHANNELS 3 Zrotation Yrotation Xrotation
						End Site
						{
							OFFSET 0.000000 0.000000 0.000000
						}
					}
				}
			}
		}
	}
	JOINT RHipJoint
	{
		OFFSET 0.000000 0.000000 0.000000
		CHANNELS 3 Zrotation Yrotation Xrotation
		JOINT RightUpLeg
		{
			OFFSET -1.800000 -1.400000 0.085000
			CHANNELS 3 Zrotation Yrotation Xrotation
			JOINT RightLeg
			{
				OFFSET -2.215000 -6.000000 0.000000
				CHANNELS 3 Zrotation Yrotation Xrotation
				JOINT RightFoot
				{
					OFFSET -2.500000 -6.900000 0.000000
					CHANNELS 3 Zrotation Yrotation Xrotation
					JOINT RightToeBase
					{
						OFFSET -0.200000 -0.500000 1.950000
						CHANNELS 3 Zrotation Yrotation Xrotation
						End Site
						{
							OFFSET 0.000000 0.000000 0.000000
						}
					}
				}
			}
		}
	}
	JOINT LowerBack
	{
		OFFSET 0.000000 0.000000 0.000000
		CHANNELS 3 Zrotation Yrotation Xrotation
		JOINT Spine
		{
			OFFSET -0.087000 1.940000 -0.288900
			CHANNELS 3 Zrotation Yrotation Xrotation
			JOINT Spine1
			{
				OFFSET 0.000000 1.950000 0.060000
				CHANNELS 3 Zrotation Yrotation Xrotation
				JOINT Neck
				{
					OFFSET 0.000000 0.000000 0.000000
					CHANNELS 3 Zrotation Yrotation Xrotation
					JOINT Neck1
					{
						OFFSET 0.000000 1.600000 0.340000
						CHANNELS 3 Zrotation Yrotation Xrotation
						JOINT Head
						{
							OFFSET 0.000000 1.667000 -0.240000
							CHANNELS 3 Zrotation Yrotation Xrotation
							End Site
							{
								OFFSET 0.000000 0.000000 0.000000
							}
						}
					}
				}
				JOINT LeftShoulder
				{
					OFFSET 0.000000 0.000000 0.000000
					CHANNELS 3 Zrotation Yrotation Xrotation
					JOINT LeftArm
					{
						OFFSET 2.700000 1.550000 -0.730000
						CHANNELS 3 Zrotation Yrotation Xrotation
						JOINT LeftForeArm
						{
							OFFSET 5.450000 0.000000 0.000000
							CHANNELS 3 Zrotation Yrotation Xrotation
							JOINT LeftHand
							{
								OFFSET 3.450000 0.000000 0.000000
								CHANNELS 3 Zrotation Yrotation Xrotation
								JOINT LeftHandIndex1
								{
									OFFSET 0.750000 0.000000 0.000000
									CHANNELS 3 Zrotation Yrotation Xrotation
									End Site
									{
										OFFSET 0.000000 0.000000 0.000000
									}
								}
							}
						}
					}
				}
				JOINT RightShoulder
				{
					OFFSET 0.000000 0.000000 0.000000
					CHANNELS 3 Zrotation Yrotation Xrotation
					JOINT RightArm
					{
						OFFSET -2.700000 1.550000 -0.730000
						CHANNELS 3 Zrotation Yrotation Xrotation
						JOINT RightForeArm
						{
							OFFSET -5.450000 0.000000 0.000000
							CHANNELS 3 Zrotation Yrotation Xrotation
							JOINT RightHand
							{
								OFFSET -3.450000 0.000000 0.000000
								CHANNELS 3 Zrotation Yrotation Xrotation
								JOINT RightHandIndex1
								{
									OFFSET -0.750000 0.000000 0.000000
									CHANNELS 3 Zrotation Yrotation Xrotation
									End Site
									{
										OFFSET 0.000000 0.000000 0.000000
									}
								}
							}
						}
					}
				}
			}
		}
	}
}
MOTION
Frames: 7
Frame Time: 0.016667
1.279120 17.485650 -3.865920 -0.885614 10.530769 3.356148 -15.196168 13.016119 3.064591 -0.046949 1.607676 6.928080 -10.323906 6.640591 5.713161 -0.385724 5.582244 2.952441 0.430810 -0.144750 0.391370 18.556893 -9.157330 3.859557 14.914296 6.606816 -27.187604 4.031442 -2.330109 2.788708 0.066964 -1.324230 4.201796 0.005450 0.318910 0.163470 -4.091675 -3.190008 -8.091767 18.081069 -7.930177 10.363866 -6.625595 -6.306834 4.790640 2.913215 -4.122501 -10.061670 -11.297571 4.224777 38.411985 -5.125780 2.496160 -10.433150 -23.167462 -12.315972 3.316571 -38.980558 -7.790116 -0.807863 -39.951140 -20.505284 4.320127 -3.657475 2.942357 0.887450 0.132250 -0.119770 0.231390 16.872758 12.319978 7.688119 41.966385 -2.220125 -8.655673 30.974390 24.549390 3.201733 1.861183 -1.293405 -0.450180 0.362410 0.047160 -0.416180 
1.297280 17.473370 -3.831250 -0.889955 10.450711 3.205167 -15.196365 13.056041 3.079664 0.013130 1.616602 7.123963 -10.375602 6.731328 5.974979 -0.358747 5.617378 2.934448 0.409660 -0.172670 0.381700 18.549774 -9.145755 3.867918 15.000751 6.589970 -26.983701 3.952406 -2.350676 2.877443 0.070901 -1.319560 4.209772 -0.023020 0.314090 0.166180 -4.081873 -3.274604 -8.127454 18.346851 -8.053236 10.564038 -6.762993 -6.318759 4.546013 3.055905 -4.168534 -10.485063 -11.583396 4.413303 38.986525 -5.034610 2.560120 -10.116380 -23.200656 -12.777001 3.583566 -38.724013 -7.451806 -0.833648 -40.249716 -20.135622 4.215111 -3.652289 2.941824 0.889190 0.127590 -0.119190 0.217390 16.619242 12.856355 8.108989 41.667586 -2.911030 -9.072191 31.905011 26.073832 3.669395 1.858145 -1.294433 -0.441130 0.350150 0.060850 -0.416410 
1.332790 17.440280 -3.754180 -0.623002 9.539046 3.028999 -15.212997 13.168699 3.130427 -0.479449 1.750149 7.365385 -10.265862 6.940528 7.059746 -0.302076 5.654671 2.918422 0.366890 -0.213080 0.360930 18.511814 -9.127315 3.902798 15.231602 6.580030 -26.702331 3.681705 -2.409022 3.587950 0.073019 -1.297940 4.225535 -0.068660 0.302220 0.155950 -3.997515 -3.486580 -8.224771 18.266051 -7.923714 11.193526 -6.509525 -5.967496 3.790128 3.350634 -4.365124 -11.379036 -12.415688 4.704094 40.091792 -5.393030 2.799110 -9.545390 -23.387521 -13.560952 4.054513 -38.087872 -6.646731 -0.857054 -41.274415 -19.221661 4.026233 -3.627275 2.927196 0.893670 0.110590 -0.105670 0.204020 16.298624 14.105159 8.988424 40.720647 -4.348626 -9.620504 34.329239 28.033012 4.502067 1.872789 -1.293509 -0.433390 0.343940 0.071910 -0.408970 
1.371690 17.405720 -3.649690 -0.081097 8.914697 2.670539 -15.244258 13.342149 3.194664 -0.809105 1.790267 7.613305 -10.301908 7.328101 9.012547 -0.258307 5.771874 2.851001 0.352320 -0.249150 0.368120 18.444683 -9.123785 3.917462 15.015074 6.461539 -26.373466 3.572281 -2.545531 4.802081 0.057730 -1.289173 4.223393 -0.115960 0.253960 0.163990 -3.856462 -3.788330 -8.341147 17.715192 -7.852866 12.120507 -6.179398 -5.634757 2.866688 3.711673 -4.447051 -12.446754 -13.220548 5.046276 41.662666 -5.533120 2.957310 -9.873720 -23.367287 -14.338473 4.576581 -37.391840 -5.663784 -0.952423 -42.439072 -18.475944 3.840327 -3.577547 2.933224 0.938530 0.069410 -0.075020 0.178580 15.714757 15.328833 9.965706 40.200581 -6.122264 -10.386748 37.125446 30.424510 5.597092 1.874201 -1.298389 -0.415970 0.309730 0.083180 -0.424930 
1.412640 17.373670 -3.529960 0.608985 8.257350 2.520001 -15.252052 13.458240 3.223587 -1.199239 1.763286 7.351806 -10.402440 7.823374 11.651642 -0.224449 5.919967 2.778412 0.313420 -0.297320 0.377020 18.399617 -9.189236 3.917181 14.472003 6.325827 -26.263159 3.748924 -2.727734 6.107258 0.056128 -1.312165 4.211000 -0.158250 0.221480 0.164290 -3.778731 -3.878116 -8.411427 17.186377 -7.640470 12.713418 -6.370475 -5.231521 2.059933 4.097427 -3.843301 -12.986014 -12.202336 4.669626 42.439388 -6.851010 3.620720 -10.148900 -23.750063 -14.946798 4.863598 -35.930162 -4.934162 -0.808087 -44.113402 -17.014673 3.558861 -3.564286 2.920046 0.956820 0.056460 -0.058710 0.141260 15.352533 15.807517 10.470099 40.232763 -7.166119 -10.838790 39.304777 32.280191 6.552216 1.884692 -1.291243 -0.414410 0.289780 0.102010 -0.444550 
1.445140 17.356360 -3.406820 0.911814 7.699354 2.600246 -15.231586 13.541873 3.170031 -1.284320 1.404852 6.106301 -10.368204 8.443663 15.466000 -0.224274 6.177031 2.706911 0.250780 -0.392810 0.349990 18.394200 -9.244690 3.933341 14.224211 6.332976 -26.148751 4.103183 -2.903238 7.091471 0.070166 -1.364691 4.213515 -0.202220 0.269430 0.148670 -3.794513 -3.913850 -8.399445 17.434404 -7.725950 12.933422 -6.668320 -5.086891 1.266164 4.147604 -3.827828 -13.368551 -12.058404 4.903545 42.013535 -6.756980 3.982620 -9.460600 -24.013624 -15.266692 5.168097 -35.374609 -3.910857 -0.903954 -44.804915 -16.064783 3.170880 -3.582366 2.871953 0.983810 0.073390 -0.090010 0.132700 15.507685 16.219444 10.786044 39.967400 -7.839260 -11.108325 40.859921 33.895750 7.434538 1.869532 -1.271120 -0.467310 0.323250 0.139950 -0.459420 
1.481500 17.352770 -3.278100 1.123113 7.162259 2.545303 -15.205124 13.589893 3.112180 -0.998751 0.756617 4.311321 -10.734621 9.354437 20.159900 -0.198001 6.590994 2.552468 0.195730 -0.467240 0.334320 18.394473 -9.330591 3.927949 13.905171 6.264238 -25.895155 4.120348 -3.057224 8.171499 0.081938 -1.438020 4.189984 -0.231260 0.283040 0.136440 -3.824022 -3.850809 -8.372943 17.818960 -7.797211 13.293860 -7.236849 -4.900970 0.813765 4.352138 -3.480362 -13.491869 -11.029596 4.547045 41.064635 -7.550530 4.456040 -9.342710 -24.147777 -15.439147 5.365996 -35.170834 -3.026225 -1.250004 -44.497089 -15.712726 2.860157 -3.600721 2.839062 0.998920 0.085280 -0.113460 0.106180 15.146571 16.282337 10.884544 40.273860 -7.975966 -11.339616 42.957408 35.135594 8.310027 1.866622 -1.269446 -0.507130 0.329430 0.174830 -0.482240 
